<svg xmlns="http://www.w3.org/2000/svg" width="335" height="90" fill="none" viewBox="0 0 335 90"><path fill="url(#paint0_linear_1108_191)" d="M46.295 3.224c.35-2.845-3.217-4.384-5.03-2.17L.655 50.626c-1.53 1.868-.208 4.684 2.201 4.684h36.349c1.712 0 3.038 1.507 2.828 3.215l-3.47 28.25c-.35 2.845 3.216 4.384 5.03 2.17l40.609-49.572c1.53-1.87.208-4.685-2.201-4.685H45.653a2.86 2.86 0 0 1-2.83-3.215z"/><path fill="#fff" fill-rule="evenodd" d="m100.289 73.342 3.351-11.53h19.925l3.404 11.53h10.289L121.089 18h-14.92L90 73.342zm20.395-21.291h-14.207l7.049-24.255zm41.889 19.869q-3.84 2.65-9.683 2.651-4.667 0-7.607-1.652-2.94-1.653-4.575-4.19-1.636-2.535-2.334-5.284-.698-2.747-.845-5.015t-.147-3.305v-23.29h10.142v19.6q0 1.423.147 3.632t.919 4.44q.772 2.228 2.517 3.727 1.746 1.5 4.943 1.499 1.286 0 2.756-.423t2.756-1.633q1.287-1.211 2.113-3.574.827-2.364.827-6.207v-21.06h10.069v41.506h-8.82v-4.275l-.044.053a16.6 16.6 0 0 1-3.134 2.8m27.028 1.422V52.127q0-2.383.625-4.285.624-1.902 1.837-3.305a9.1 9.1 0 0 1 2.977-2.248q1.763-.885 3.95-1.057 2.187-.173 3.84.365v-9.762a18 18 0 0 0-3.601-.096q-1.8.135-3.491.654a12.6 12.6 0 0 0-3.124 1.44 11 11 0 0 0-3.16 2.922q-.585.802-1.063 1.686l-.04.077.001-6.683h-8.82v41.507zm43.872-1.634q-4.538 2.787-10.491 2.787-5.99 0-10.51-2.806t-7.038-7.744q-2.517-4.939-2.517-11.356 0-6.496 2.573-11.434t7.092-7.706q4.52-2.766 10.4-2.766 5.99 0 10.528 2.805t7.074 7.744 2.536 11.357q0 6.456-2.554 11.395t-7.093 7.724m-10.492-6.975q-4.666 0-7.074-3.286t-2.407-8.858q0-3.614 1.011-6.342t3.105-4.266q2.095-1.537 5.365-1.537 4.741 0 7.148 3.305t2.407 8.84q0 5.34-2.37 8.743-2.37 3.4-7.185 3.4m33.435-12.606v21.215h-10.069V31.835h8.819v6.681l.04-.075q.478-.883 1.063-1.686a11 11 0 0 1 3.16-2.921 12.6 12.6 0 0 1 3.124-1.441 16 16 0 0 1 3.491-.654q1.8-.134 3.601.096v9.762q-1.653-.538-3.84-.365t-3.951 1.057a9.05 9.05 0 0 0-2.976 2.248q-1.213 1.403-1.838 3.305-.624 1.903-.624 4.285m29.886 22.368q5.145 0 8.507-1.864 2.522-1.398 4.786-4.104l.23-.28v5.095h8.746V47.977q0-2.844-.22-5.15-.221-2.306-1.396-4.612-2.095-4.15-6.174-5.842-4.08-1.69-9.334-1.69-7.165 0-11.319 3.228-4.152 3.228-5.659 8.378l9.04 2.997q.956-2.843 3.344-3.958 2.39-1.114 4.594-1.114 3.969 0 5.659 1.729 1.3 1.33 1.6 3.82l.012.102-.43.067q-1.972.308-3.781.588l-.598.092q-3.858.596-6.909 1.25-3.05.653-5.255 1.498-3.197 1.23-5.089 3.056t-2.738 4.208-.845 5.265q0 3.459 1.525 6.322t4.483 4.573 7.221 1.71m-.845-8.763q1.25.538 2.976.538 2.757 0 4.649-1.018 1.893-1.02 3.013-2.325 1.122-1.307 1.525-2.19.772-1.692.901-3.94l.02-.37q.06-1.092.086-1.998l.002-.093-.326.057q-2.263.401-3.916.713-2.757.52-4.447.941-1.69.423-2.976.923-1.47.615-2.371 1.326-.9.71-1.323 1.556a4.16 4.16 0 0 0-.422 1.883q0 1.423.68 2.44.68 1.02 1.929 1.557" clip-rule="evenodd"/><defs><linearGradient id="paint0_linear_1108_191" x1="-42.429" x2="49.881" y1="46.313" y2="130.881" gradientUnits="userSpaceOnUse"><stop stop-color="#00000065"/><stop offset="1" stop-color="#158b38"/></linearGradient></defs></svg>